<svg xmlns="http://www.w3.org/2000/svg" viewBox="0 0 1024 1024"><path fill="#2ec4f0" stroke="#2ec4f0" d="M0 512.001v512.001l512.25-.251 512.25-.251.251-511.75.251-511.75H0v512.001m.496.499c0 281.6.114 396.651.254 255.668.14-140.982.14-371.382 0-512C.61 115.551.496 230.9.496 512.5m458.86-289.76c-10.801.95-16.141 13.595-8.59 20.342 1.796 1.605 4.271 2.924 5.5 2.932 6.86.042 6.264-7.768 5.976 78.287-.142 42.459-.518 79.182-.835 81.606-.582 4.446-54.487 113.246-90.961 183.593-9.126 17.6-26.624 52.067-38.885 76.593-12.261 24.526-23.449 46.576-24.863 49-14.288 24.491-5.52 56.202 20.206 73.082 13.874 9.104-4.055 8.325 191.596 8.325 166.47 0 173.208-.071 178.5-1.873 36.798-12.532 51.916-48.58 34.024-81.127-1.512-2.75-8.266-15.575-15.009-28.5-6.744-12.925-14.757-28.225-17.806-34-4.947-9.368-18.592-36.079-71.934-140.821-8.493-16.677-19.701-38.502-24.906-48.5-16.382-31.47-24.264-47.982-25.842-54.139-1.565-6.11-2.393-152.705-.894-158.301.352-1.314 1.602-2.466 2.986-2.75 1.31-.269 3.545-.732 4.967-1.03 9.843-2.058 9.919-17.144.109-21.799-3.205-1.521-9.022-1.662-61.368-1.482-31.805.109-59.692.362-61.971.562M468 237.809c0 .445 2.25 3.144 5 5.997l5 5.187v80.322c0 91.994.857 83.218-10.077 103.185-3.915 7.15-23.696 45.85-43.957 86s-43.909 86.725-52.551 103.5c-27.484 53.35-28.859 56.219-28.768 60.018.188 7.838 8.289 18.921 18.001 24.63l4.852 2.852h301l5.753-2.696c12.709-5.956 27.287-26.083 22.441-30.982-.72-.727-6.513-11.447-12.875-23.822s-15.082-29.025-19.378-37c-4.296-7.975-9.039-16.975-10.539-20-8.672-17.489-20.347-40.611-50.534-100.081-18.543-36.53-35.44-69.794-37.549-73.919-5.649-11.047-5.646-11.015-5.92-94.787l-.252-77.286 4.677-4.748c2.572-2.611 4.676-5.295 4.676-5.963 0-.938-11.313-1.216-49.5-1.216-27.225 0-49.5.364-49.5.809m-15.812 246.753c-.722.818-2.125 3.849-3.119 6.737-.993 2.887-4.506 11.088-7.807 18.225-3.301 7.137-9.935 21.751-14.743 32.476a4744.585 4744.585 0 01-17.507 38.5c-4.82 10.45-9.985 22.15-11.477 26-3.085 7.962-10.247 24.478-18.147 41.849-5.826 12.813-6.14 14.297-3.925 18.579 1.749 3.383 3.289 4.072 9.096 4.072 5.17 0 5.995-.96 9.887-11.5 1.422-3.85 3.227-8.35 4.011-10 .785-1.65 6.02-13.8 11.634-27 5.614-13.2 13.465-31.65 17.446-41 3.981-9.35 9.34-21.473 11.907-26.941 2.567-5.467 7.088-15.592 10.046-22.5 8.972-20.953 13.193-29.4 16.426-32.871 3.507-3.765 3.425-3.421 2.017-8.49-1.758-6.332-12.036-10.337-15.745-6.136m246.731 219.14c-7.308 8.754-16.224 15.204-25.217 18.241-8.359 2.823-304.201 3.286-313.613.491-10.128-3.008-20.153-10.367-24.769-18.184-3.065-5.19-2.36-5.351-6.562 1.5-14.283 23.291-16.8 38.199-9.074 53.75 5.298 10.663 13.547 17.968 23.816 21.09 8.804 2.677 343.634 2.083 351.333-.623 18.859-6.628 28.819-21.52 28.002-41.866-.422-10.513-1.356-12.973-12.649-33.345l-4.847-8.745-6.42 7.691" fill-rule="evenodd"/><path fill="#bdbfbf" stroke="#bdbfbf" d="M0 512.001v512.001l512.25-.251 512.25-.251.251-511.75.251-511.75H0v512.001m.496.499c0 281.6.114 396.651.254 255.668.14-140.982.14-371.382 0-512C.61 115.551.496 230.9.496 512.5M516.455 222c-56.506.471-60.219.61-63 2.375-11.288 7.162-7.089 22.625 6.144 22.625h2.469l-.284 80.495-.284 80.494-35.685 71.256c-19.627 39.19-43.16 85.655-52.295 103.255-9.135 17.6-27.655 54.05-41.156 81-13.5 26.95-25.361 50.35-26.357 52-5.949 9.853-8.186 29.584-4.592 40.5 5.741 17.435 19.875 32.354 36.816 38.86 3.898 1.498 19.561 1.64 180.269 1.64h176l7.812-3.245c24.155-10.032 37.998-30.855 36.402-54.755-.741-11.101-3.262-18.219-12.488-35.267-4.385-8.103-12.146-22.833-17.245-32.733-5.1-9.9-9.6-18.45-10.001-19-.402-.55-14.343-27.775-30.981-60.5s-34.409-67.6-39.491-77.5c-25.78-50.222-31.081-60.617-40.796-80-5.79-11.55-11.038-22.8-11.663-25-.815-2.873-1.053-26.115-.842-82.472l.293-78.473 4.19-.715c11.994-2.047 15.187-13.197 6.155-21.494-4.007-3.681-7.71-3.86-69.39-3.346m-47.454 16.239c-.001.407 2.264 3.241 5.033 6.298l5.033 5.559-.283 80.702c-.327 93.05 1.075 80.884-12.115 105.08-9.001 16.51-76.67 151.212-76.672 152.622-.001.606 2.922.872 7.424.674l7.425-.327 8.249-18.173c8.188-18.04 18.503-40.795 29.258-64.545 3.081-6.805 5.888-13.895 6.237-15.756 1.372-7.314 7.843-9.72 15.552-5.783 4.958 2.533 6.541 12.077 2.447 14.759-1.325.869-3.532 3.958-4.904 6.865-4.131 8.759-8.157 17.671-13.453 29.786a1957.5 1957.5 0 01-10.738 24C432.051 571.913 425 588.122 425 588.72c0 .794 82.702.122 83.974-.683 1.249-.79 1.135-1.292-.75-3.299-5.748-6.118-.588-16.738 8.134-16.738 8.731 0 14.172 12.701 7.347 17.149-.548.357-.72 1.37-.382 2.25.723 1.885 124.677 2.519 124.677.637 0-.53-7.433-15.398-16.518-33.041-9.085-17.642-25.108-49.271-35.606-70.286-10.499-21.015-22.474-44.431-26.611-52.036-12.775-23.481-11.662-13.801-12.045-104.753l-.33-78.579 5.223-5.169c2.873-2.843 4.924-5.468 4.559-5.834-.919-.918-97.67-1.016-97.671-.099m43.387 96.741c-5.321 2.15-8.011 9.977-5.271 15.336 5.187 10.143 20.883 5.998 20.883-5.515 0-7.109-8.731-12.601-15.612-9.821m-3.465 47.943c-9.861 9.861 5.224 24.941 15.327 15.321 3.037-2.891 3.852-10.265 1.468-13.29-4.51-5.724-12.175-6.651-16.795-2.031m4.3 33.634c-3.999 2.8-1.853 10.443 2.931 10.443 2.159 0 5.846-4.263 5.846-6.758 0-2.057-3.341-5.242-5.5-5.242-.58 0-2.055.701-3.277 1.557m.165 29.113c-1.162.238-3.361 1.736-4.887 3.329-7.439 7.765.424 20.793 10.818 17.923 13.373-3.692 7.692-24.048-5.931-21.252m-2.799 41.407c-2.876 3.417-3.105 4.697-1.479 8.266 3.387 7.432 14.89 4.85 14.89-3.343 0-7.375-8.67-10.558-13.411-4.923m1.174 35.488c-7.094 3.85-7.517 13.867-.809 19.153 2.894 2.28 10.484 1.571 13.298-1.242 8.388-8.389-2.16-23.515-12.489-17.911M373.857 647.477c-.262.262-3.79.946-7.84 1.521-4.049.574-8.04 1.597-8.869 2.273-2.463 2.01-14.148 27.385-14.148 30.725 0 7.314 8.472 18.817 17.854 24.24l5.646 3.264 146.988.275c166.84.312 153.905.934 165.923-7.97 8.684-6.434 17.098-20.43 15.222-25.32-.528-1.374-1.555-.837-5.886 3.078-12.742 11.516-27.401 14.837-62.247 14.099-38.417-.814-72.781-6.864-128.402-22.604-26.128-7.395-32.42-8.906-60.098-14.433-41.202-8.228-39.354-8.376-43.167 3.463-2.953 9.166-4.534 11.011-9.962 11.623-3.77.425-4.944.099-7.558-2.101-4.592-3.864-4.831-6.503-1.334-14.721 1.662-3.904 3.021-7.276 3.021-7.494 0-.563-4.571-.491-5.143.082m326.643 55.08c-7.69 10.522-20.366 19.028-31.935 21.43-9.552 1.983-305.15.881-310.211-1.156-10.496-4.225-19.837-11.868-24.899-20.373-1.216-2.043-6.425 5.895-13.151 20.042-8.044 16.917-4.296 36.995 9.209 49.337 3.099 2.833 7.998 6.033 11.24 7.342l5.747 2.321h345l6.738-3.182c19.733-9.318 29.119-29.776 22.917-49.949-1.161-3.778-5.045-12.044-8.629-18.369-3.585-6.325-6.52-11.837-6.522-12.25-.01-1.829-1.792-.272-5.504 4.807" fill-rule="evenodd"/><path fill="#232323" stroke="#232323" d="M0 512.001v512.001l512.25-.251 512.25-.251.251-511.75.251-511.75H0v512.001m.496.499c0 281.6.114 396.651.254 255.668.14-140.982.14-371.382 0-512C.61 115.551.496 230.9.496 512.5M461.5 222.024c-3.3.289-6.9 1.035-8 1.659-10.986 6.227-8.701 21.021 3.57 23.116l4.35.743-.28 78.979c-.154 43.438-.539 80.104-.857 81.479-.676 2.93-66.729 134.981-90.787 181.5-33.075 63.954-67.304 133.401-68.913 139.817-5.683 22.659 5.038 46.579 27.015 60.277 13.404 8.354-4.068 7.672 190.902 7.452l174-.197 7-2.343c28.568-9.565 45.062-37.581 38.565-65.506-1.557-6.692-10.619-24.903-37.072-74.5-2.64-4.95-16.716-32.4-31.28-61-46.782-91.867-50.786-99.713-59.714-117-25.065-48.532-32.828-64.417-33.869-69.299-1.281-6.008-1.627-156.91-.365-158.801.404-.605 2.76-1.365 5.235-1.688 11.87-1.552 13.764-17.424 2.794-23.413-3.061-1.672-7.291-1.799-59.794-1.799-31.075 0-59.2.236-62.5.524m12.355 21.416l5.145 5.44v80.585c0 93.384 1.303 82.063-12.361 107.4C459.221 450.62 390 587.703 390 588.638c0 .199 3.181.362 7.068.362h7.069l4.572-9.75c4.604-9.816 9.216-19.977 20.764-45.75 3.451-7.7 8.746-19.4 11.768-26 3.022-6.6 6.265-14.362 7.207-17.249.942-2.888 2.676-5.925 3.855-6.75 9.822-6.88 23.421 9.422 14.025 16.813-1.407 1.107-3.79 4.751-5.297 8.099A2424.124 2424.124 0 01456.237 519c-2.204 4.824-14.777 33.082-24.368 54.77-3.228 7.298-5.869 13.734-5.869 14.301 0 1.204 81.371.894 82.578-.315.409-.409.049-1.534-.799-2.5-5.839-6.649-.473-18.256 8.44-18.256 8.882 0 14.387 11.415 8.546 17.719l-2.056 2.22 2.711 1.03c3.011 1.145 122.58 1.504 122.58.368 0-.364-2.877-6.102-6.393-12.75S621.604 536.5 604.97 503.5s-33.155-65.357-36.713-71.903c-11.824-21.753-10.698-11.257-11.033-102.853l-.292-79.757 4.534-4.847c2.494-2.666 4.534-5.138 4.534-5.494 0-.355-21.89-.646-48.645-.646H468.71l5.145 5.44m37.382 91.52c-7.248 4.501-8.031 13.38-1.671 18.964 9.418 8.269 23.243-2.094 17.878-13.402-3.132-6.599-10.477-9.12-16.207-5.562m-2.32 46.822c-7.761 6.935-2.462 20.218 8.065 20.218 11.366 0 15.194-15.158 5.303-20.994-4.878-2.878-9.583-2.605-13.368.776m2.738 35.047c-3.356 3.709-.089 11.171 4.891 11.171 1.761 0 6.454-5.76 6.454-7.922 0-4.535-8.086-6.851-11.345-3.249M508.4 448.4c-4.593 4.593-4.833 10.965-.591 15.713 6.795 7.604 20.191 3.158 20.191-6.701 0-10.82-12.188-16.424-19.6-9.012m2.626 37.232c-5.856 4.927-3.044 12.966 5.222 14.931 5.92 1.407 11.011-8.219 6.98-13.196-3.954-4.881-7.812-5.429-12.202-1.735m-1.911 38.407c-9.772 9.772 1.439 24.897 13.74 18.536 4.842-2.504 6.399-8.639 3.781-14.903-2.988-7.152-12.111-9.043-17.521-3.633M367.5 649.225c-3.3.513-7.011 1.131-8.246 1.372-2.569.502-16.251 26.924-16.253 31.389-.003 7.205 10.564 20.499 19.617 24.677l5.118 2.363 149.382-.263L666.5 708.5l5.5-2.597c8.439-3.985 15.373-10.855 19.611-19.43 4.971-10.058 4.065-12.314-2.485-6.188-23.544 22.023-92.961 19.185-187.752-7.677-33.945-9.62-63.13-16.195-89.117-20.078-14.597-2.18-13.356-2.66-16.556 6.4-3.974 11.253-5.624 13.07-11.872 13.07-9.665 0-13.243-7.303-8.329-17 3.899-7.693 3.973-7.64-8-5.775m334.033 52.727c-6.432 9.282-17.083 17.281-28.019 21.043-5.732 1.972-8.282 2.005-156.421 1.981-97.841-.016-152.129-.379-154.978-1.036-10.049-2.317-22.967-11.394-28.227-19.835l-1.493-2.396-3.111 4.896c-5.105 8.031-10.954 20.531-12.289 26.263-4.323 18.552 6.584 38.977 24.723 46.298l5.782 2.334 159.327.274c177.253.304 182.394.183 192.477-4.535 12.592-5.893 20.897-17.123 22.87-30.927 1.792-12.535.335-17.151-13.265-42.054-4.033-7.384-3.888-7.339-7.376-2.306" fill-rule="evenodd"/></svg>